<?xml version="1.0" encoding="UTF-8" standalone="no"?><!DOCTYPE svg PUBLIC "-//W3C//DTD SVG 1.1//EN" "http://www.w3.org/Graphics/SVG/1.1/DTD/svg11.dtd"><svg width="100%" height="100%" viewBox="0 0 300 300" version="1.1" xmlns="http://www.w3.org/2000/svg" xmlns:xlink="http://www.w3.org/1999/xlink" xml:space="preserve" xmlns:serif="http://www.serif.com/" style="fill-rule:evenodd;clip-rule:evenodd;stroke-linejoin:round;stroke-miterlimit:2;"><g id="Right"><path d="M186.098,235.69c-0.378,-0.771 -0.174,-2.228 -0.192,-2.944c-0.018,-0.716 -1.961,-2.834 -1.108,-3.673c0.853,-0.839 2.712,1.04 3.943,1.662c1.231,0.621 2.393,0.288 3.039,1.666c0.646,1.378 1.148,3.511 -0.33,4.485c-1.478,0.974 -4.476,0.594 -5.352,-1.196Z" style="fill:#c78147;"/><path d="M186.911,225.803c-0.393,-1.236 -1.791,-3.32 -1.597,-4.069c0.194,-0.749 0.577,-1.271 1.532,-0.787c0.955,0.484 1.033,1.956 1.817,2.221c0.784,0.265 2.353,0.562 2.944,1.975c0.591,1.413 0.813,3.928 -1.543,3.475c-2.356,-0.453 -2.515,-0.805 -3.154,-2.814Z" style="fill:#c78147;"/><path d="M192.55,223.308c0,0 2.392,3.073 1.952,4.512c-0.44,1.439 -0.135,2.366 0.635,2.69c0.77,0.324 3.206,1.278 4.069,0.3c0.863,-0.978 1.602,-2.66 0.629,-3.804c-0.973,-1.144 -2.027,-1.46 -2.831,-2.093c-0.804,-0.633 -2.295,-1.945 -3.104,-1.937c-0.809,0.008 -1.35,0.332 -1.35,0.332Z" style="fill:#c78147;"/><path d="M194.962,237.32c0,0 0.533,-1.413 2.668,-1.71c2.135,-0.297 3.039,2.086 2.434,2.864c-0.605,0.778 -0.54,2.297 -1.883,2.801c-1.343,0.504 -1.967,-0.361 -2.415,-0.972c-0.448,-0.612 -1.302,-2.169 -0.803,-2.983Z" style="fill:#c78147;"/></g><g id="Right1" serif:id="Right"><path d="M138.268,165.821c-0.762,-0.396 -1.462,-1.69 -1.902,-2.255c-0.44,-0.565 -3.261,-1.117 -3.072,-2.298c0.189,-1.181 2.8,-0.773 4.159,-1.004c1.359,-0.231 2.097,-1.189 3.435,-0.464c1.338,0.725 3.008,2.144 2.397,3.805c-0.611,1.661 -3.249,3.135 -5.017,2.215Z" style="fill:#c78147;"/><path d="M133.052,157.382c-1.05,-0.761 -3.412,-1.609 -3.701,-2.327c-0.289,-0.718 -0.29,-1.365 0.765,-1.543c1.056,-0.178 1.993,0.961 2.781,0.709c0.788,-0.252 2.227,-0.945 3.542,-0.159c1.315,0.786 2.986,2.679 0.821,3.712c-2.165,1.034 -2.501,0.845 -4.209,-0.393Z" style="fill:#c78147;"/><path d="M136.109,152.027c0,0 3.749,1.053 4.249,2.472c0.5,1.419 1.296,1.984 2.108,1.787c0.812,-0.196 3.339,-0.875 3.452,-2.174c0.113,-1.299 -0.29,-3.092 -1.752,-3.435c-1.462,-0.343 -2.498,0.028 -3.521,-0.004c-1.022,-0.032 -3.001,-0.203 -3.647,0.284c-0.646,0.487 -0.889,1.069 -0.889,1.069Z" style="fill:#c78147;"/><path d="M146.368,161.87c0,0 -0.41,-1.454 1.132,-2.96c1.541,-1.506 3.684,-0.126 3.659,0.86c-0.024,0.985 0.929,2.169 0.147,3.372c-0.782,1.203 -1.797,0.877 -2.521,0.651c-0.724,-0.226 -2.335,-0.972 -2.418,-1.924Z" style="fill:#c78147;"/></g><g id="Right2" serif:id="Right"><path d="M57.849,137.821c-0.762,-0.396 -1.462,-1.69 -1.902,-2.255c-0.44,-0.565 -3.261,-1.117 -3.072,-2.298c0.189,-1.181 2.8,-0.773 4.159,-1.004c1.359,-0.231 2.097,-1.189 3.435,-0.464c1.338,0.725 3.008,2.144 2.397,3.805c-0.611,1.661 -3.249,3.135 -5.017,2.215Z" style="fill:#c78147;"/><path d="M52.634,129.382c-1.05,-0.761 -3.412,-1.609 -3.701,-2.327c-0.289,-0.718 -0.29,-1.365 0.765,-1.543c1.056,-0.178 1.993,0.961 2.781,0.709c0.788,-0.252 2.227,-0.945 3.542,-0.159c1.315,0.786 2.986,2.679 0.821,3.712c-2.165,1.034 -2.501,0.845 -4.209,-0.393Z" style="fill:#c78147;"/><path d="M55.69,124.027c0,0 3.749,1.053 4.249,2.472c0.5,1.419 1.296,1.984 2.108,1.787c0.812,-0.196 3.339,-0.875 3.452,-2.174c0.113,-1.299 -0.29,-3.092 -1.752,-3.435c-1.462,-0.343 -2.498,0.028 -3.521,-0.004c-1.022,-0.032 -3.001,-0.203 -3.647,0.284c-0.646,0.487 -0.889,1.069 -0.889,1.069Z" style="fill:#c78147;"/><path d="M65.949,133.87c0,0 -0.41,-1.454 1.132,-2.96c1.541,-1.506 3.684,-0.126 3.659,0.86c-0.024,0.985 0.929,2.169 0.147,3.372c-0.782,1.203 -1.797,0.877 -2.521,0.651c-0.724,-0.226 -2.335,-0.972 -2.418,-1.924Z" style="fill:#c78147;"/></g><g id="Left"><path d="M186.539,288.815c0,0 1.339,-0.703 2.517,-0.062c1.178,0.642 2.31,1.463 1.594,2.415c-0.716,0.952 -1.5,3.252 -3.231,2.972c-1.731,-0.28 -2.297,-2.043 -2.103,-3.259c0.194,-1.216 0.8,-1.971 1.223,-2.067Z" style="fill:#c78147;"/><path d="M178.446,289.918c0,0 -2.584,-3.312 -1.663,-6.099c0.921,-2.787 1.068,-2.638 1.675,-2.962c0.607,-0.324 2.264,1.642 2.805,2.202c0.541,0.56 2.592,2.706 2.431,4.538c-0.161,1.832 -0.965,3.669 -2.609,3.494c-1.645,-0.175 -2.084,-0.557 -2.639,-1.173Z" style="fill:#c78147;"/><path d="M186.913,282.68c-0.429,-1.64 -1.146,-3.427 -0.807,-4.663c0.339,-1.236 0.211,-1.822 1.148,-1.658c0.937,0.164 2.216,1.675 3.115,2.707c0.899,1.032 2.709,3.8 1.841,5.274c-0.868,1.474 -1.772,2.908 -3.512,1.875c-1.74,-1.033 -1.355,-1.895 -1.784,-3.535Z" style="fill:#c78147;"/><path d="M178.985,278.358c-0.083,-1.085 0.023,-3.972 0.591,-5.287c0.568,-1.315 0.868,-2.571 1.722,-2.78c0.854,-0.209 0.835,2.13 1.301,3.172c0.466,1.042 1.936,3.445 2.131,4.615c0.195,1.17 -0.464,3.833 -1.961,3.912c-1.497,0.079 -3.596,-1.172 -3.784,-3.633Z" style="fill:#c78147;"/></g><g id="Left1" serif:id="Left"><path d="M146.866,215.617c0,0 0.822,-1.27 2.163,-1.288c1.341,-0.018 2.731,0.143 2.574,1.323c-0.157,1.181 0.287,3.57 -1.358,4.174c-1.645,0.605 -3.003,-0.654 -3.431,-1.809c-0.427,-1.155 -0.269,-2.11 0.052,-2.401Z" style="fill:#c78147;"/><path d="M140.354,220.548c0,0 -3.876,-1.619 -4.44,-4.5c-0.564,-2.881 -0.363,-2.823 0.007,-3.403c0.37,-0.58 2.779,0.321 3.525,0.543c0.746,0.222 3.586,1.087 4.344,2.763c0.758,1.676 0.958,3.671 -0.561,4.325c-1.519,0.654 -2.09,0.536 -2.875,0.271Z" style="fill:#c78147;"/><path d="M144.183,210.088c-1.178,-1.219 -2.679,-2.424 -2.99,-3.668c-0.311,-1.243 -0.709,-1.691 0.187,-2.008c0.897,-0.317 2.753,0.373 4.042,0.832c1.289,0.458 4.225,1.984 4.191,3.694c-0.034,1.71 -0.118,3.403 -2.141,3.357c-2.023,-0.047 -2.11,-0.987 -3.289,-2.206Z" style="fill:#c78147;"/><path d="M135.154,210.208c-0.604,-0.905 -1.928,-3.473 -2.078,-4.898c-0.15,-1.425 -0.504,-2.666 0.137,-3.267c0.642,-0.601 1.773,1.447 2.69,2.127c0.917,0.68 3.376,2.054 4.12,2.977c0.744,0.924 1.475,3.568 0.21,4.371c-1.266,0.803 -3.709,0.743 -5.079,-1.311Z" style="fill:#c78147;"/></g><g id="Left2" serif:id="Left"><path d="M89.816,178.553c0,0 0.088,-1.51 1.245,-2.188c1.157,-0.678 2.445,-1.225 2.892,-0.121c0.447,1.104 2.013,2.962 0.881,4.3c-1.132,1.339 -2.934,0.915 -3.876,0.122c-0.942,-0.793 -1.276,-1.701 -1.141,-2.113Z" style="fill:#c78147;"/><path d="M86.59,186.056c0,0 -4.17,0.507 -6.083,-1.719c-1.914,-2.226 -1.71,-2.275 -1.675,-2.962c0.035,-0.687 2.575,-1.094 3.333,-1.269c0.758,-0.175 3.655,-0.826 5.142,0.256c1.487,1.083 2.647,2.718 1.649,4.037c-0.998,1.319 -1.552,1.499 -2.366,1.656Z" style="fill:#c78147;"/><path d="M84.752,175.07c-1.627,-0.478 -3.527,-0.785 -4.412,-1.712c-0.885,-0.927 -1.452,-1.12 -0.829,-1.838c0.623,-0.718 2.578,-1.035 3.925,-1.274c1.347,-0.238 4.653,-0.362 5.468,1.142c0.815,1.504 1.579,3.017 -0.204,3.976c-1.782,0.959 -2.322,0.184 -3.949,-0.294Z" style="fill:#c78147;"/><path d="M76.961,179.635c-0.973,-0.489 -3.392,-2.067 -4.226,-3.232c-0.834,-1.165 -1.755,-2.069 -1.494,-2.908c0.261,-0.839 2.256,0.383 3.389,0.52c1.133,0.138 3.95,0.118 5.053,0.553c1.103,0.436 3.045,2.373 2.342,3.697c-0.704,1.323 -2.858,2.478 -5.064,1.369Z" style="fill:#c78147;"/></g><g id="Left3" serif:id="Left"><path d="M18.62,166.553c0,0 0.088,-1.51 1.245,-2.188c1.157,-0.678 2.445,-1.225 2.892,-0.121c0.447,1.104 2.013,2.962 0.881,4.3c-1.132,1.339 -2.934,0.915 -3.876,0.122c-0.942,-0.793 -1.276,-1.701 -1.141,-2.113Z" style="fill:#c78147;"/><path d="M15.393,174.056c0,0 -4.17,0.507 -6.083,-1.719c-1.914,-2.226 -1.71,-2.275 -1.675,-2.962c0.035,-0.687 2.575,-1.094 3.333,-1.269c0.758,-0.175 3.655,-0.826 5.142,0.256c1.487,1.083 2.647,2.718 1.649,4.037c-0.998,1.319 -1.552,1.499 -2.366,1.656Z" style="fill:#c78147;"/><path d="M13.556,163.07c-1.627,-0.478 -3.527,-0.785 -4.412,-1.712c-0.885,-0.927 -1.452,-1.12 -0.829,-1.838c0.623,-0.718 2.578,-1.035 3.925,-1.274c1.347,-0.238 4.653,-0.362 5.468,1.142c0.815,1.504 1.579,3.017 -0.204,3.976c-1.782,0.959 -2.322,0.184 -3.949,-0.294Z" style="fill:#c78147;"/><path d="M5.765,167.635c-0.973,-0.489 -3.392,-2.067 -4.226,-3.232c-0.834,-1.165 -1.755,-2.069 -1.494,-2.908c0.261,-0.839 2.256,0.383 3.389,0.52c1.133,0.138 3.95,0.118 5.053,0.553c1.103,0.436 3.045,2.373 2.342,3.697c-0.704,1.323 -2.858,2.478 -5.064,1.369Z" style="fill:#c78147;"/></g></svg>